<?xml version="1.0" standalone="no"?><!DOCTYPE svg PUBLIC "-//W3C//DTD SVG 1.1//EN" "http://www.w3.org/Graphics/SVG/1.1/DTD/svg11.dtd"><svg class="icon" width="200px" height="200.00px" viewBox="0 0 1024 1024" version="1.1" xmlns="http://www.w3.org/2000/svg"><path d="M512 0C230.4 0 0 230.4 0 512s230.4 512 512 512 512-230.4 512-512S793.6 0 512 0zM392.533333 516.266667c0-34.133333 12.8-64 34.133334-85.333334s55.466667-34.133333 85.333333-34.133333l234.666667-115.2-115.2 234.666667c0 34.133333-12.8 64-34.133334 85.333333s-55.466667 34.133333-85.333333 34.133333l-234.666667 115.2 115.2-234.666666z m119.466667-42.666667c-21.333333 0-38.4 17.066667-38.4 38.4s17.066667 38.4 38.4 38.4 38.4-17.066667 38.4-38.4-17.066667-38.4-38.4-38.4z" fill="#1f97ff" /></svg>